<svg width="18" height="16" viewBox="0 0 18 16" fill="none" xmlns="http://www.w3.org/2000/svg">
<path d="M9.87284 2.05219L11.066 4.37601C11.2616 4.75643 11.6392 5.02009 12.0761 5.08116L14.7445 5.45385C15.8446 5.60746 16.2839 6.90667 15.4878 7.6525L13.5563 9.46108C13.2403 9.75724 13.096 10.184 13.1706 10.6022L13.6264 13.1562C13.8145 14.2093 12.6643 15.0122 11.6805 14.5151L9.29383 13.3099C8.90307 13.1124 8.43615 13.1124 8.04536 13.3099L5.65864 14.5159C4.67493 15.013 3.52466 14.2092 3.7128 13.157L4.16857 10.603C4.24351 10.1845 4.09915 9.75748 3.78285 9.46108L1.85189 7.65229C1.05571 6.90647 1.49506 5.60726 2.59519 5.45364L5.26358 5.08095C5.70051 5.01988 6.0781 4.7562 6.27366 4.37581L7.46635 2.05222C7.95892 1.09378 9.3803 1.09375 9.87284 2.05219Z" fill="black"/>
</svg>
