<svg width="19" height="16" viewBox="0 0 19 16" fill="none" xmlns="http://www.w3.org/2000/svg">
<path d="M10.7032 2.05148L11.896 4.37457C12.0915 4.75488 12.469 5.01845 12.9058 5.0795L15.5733 5.45207C16.6731 5.60564 17.1123 6.90444 16.3164 7.65003L14.3856 9.45805C14.0696 9.75412 13.9254 10.1807 14 10.5988L14.4556 13.1521C14.6437 14.2048 13.4938 15.0074 12.5104 14.5105L10.1244 13.3057C9.73375 13.1083 9.26698 13.1083 8.87631 13.3057L6.49033 14.5113C5.50693 15.0082 4.35702 14.2047 4.5451 13.1529L5.00073 10.5996C5.07565 10.1813 4.93133 9.75436 4.61513 9.45806L2.68478 7.64983C1.88884 6.90424 2.32805 5.60543 3.42784 5.45187L6.0954 5.07929C6.53219 5.01824 6.90966 4.75464 7.10516 4.37437L8.29748 2.05151C8.7899 1.09337 10.2108 1.09333 10.7032 2.05148Z" fill="#D9D9D9"/>
</svg>
